<?xml version="1.0" standalone="no"?>
<!DOCTYPE svg PUBLIC "-//W3C//DTD SVG 20010904//EN"
 "http://www.w3.org/TR/2001/REC-SVG-20010904/DTD/svg10.dtd">
<svg version="1.0" xmlns="http://www.w3.org/2000/svg"
 width="32.000000pt" height="32.000000pt" viewBox="0 0 32.000000 32.000000"
 preserveAspectRatio="xMidYMid meet">

<g transform="translate(0.000000,32.000000) scale(0.100000,-0.100000)"
fill="#000000" stroke="none">
<path d="M127 279 c-28 -16 -40 -58 -27 -90 15 -35 62 -56 93 -41 20 10 19 11
-14 11 -59 1 -88 52 -55 96 9 13 25 19 50 18 20 -1 33 3 30 8 -7 12 -55 11
-77 -2z"/>
<path d="M135 240 c-3 -5 1 -10 10 -10 12 0 14 -4 5 -19 -14 -26 -13 -31 6
-31 10 0 14 6 11 15 -4 8 -2 17 3 20 13 8 1 35 -15 35 -8 0 -17 -4 -20 -10z"/>
<path d="M187 218 c8 -46 13 -48 13 -5 0 21 -4 37 -10 37 -5 0 -7 -14 -3 -32z"/>
<path d="M34 119 c-3 -6 -2 -15 3 -20 5 -5 9 -1 9 11 0 23 -2 24 -12 9z"/>
<path d="M60 110 c0 -11 4 -20 8 -20 4 0 8 9 8 20 0 11 -4 20 -8 20 -4 0 -8
-9 -8 -20z"/>
<path d="M132 110 c0 -14 2 -19 5 -12 2 6 2 18 0 25 -3 6 -5 1 -5 -13z"/>
<path d="M177 115 c-9 -9 -17 -11 -20 -5 -3 6 -4 5 -3 -1 3 -16 56 -18 56 -2
0 20 -17 24 -33 8z"/>
<path d="M261 107 c0 -12 3 -16 6 -9 2 6 9 10 14 6 5 -3 9 -1 9 4 0 6 -7 12
-15 16 -11 4 -15 -1 -14 -17z"/>
<path d="M90 108 c0 -4 7 -8 15 -8 8 0 15 4 15 8 0 5 -7 9 -15 9 -8 0 -15 -4
-15 -9z"/>
<path d="M220 109 c0 -5 5 -7 10 -4 6 3 10 8 10 11 0 2 -4 4 -10 4 -5 0 -10
-5 -10 -11z"/>
<path d="M150 68 c0 -10 17 -10 24 0 3 5 -1 9 -9 9 -8 0 -15 -4 -15 -9z"/>
</g>
</svg>
